<svg width="164" height="155" viewBox="0 0 164 155" fill="none" xmlns="http://www.w3.org/2000/svg">
<path d="M7.04429 155V148H28.1772V155H7.04429ZM28.1772 148V134H14.0886V127H35.2215V148H28.1772ZM0 148V113H7.04429V148H0ZM28.1772 120V113H35.2215V120H28.1772ZM7.04429 113V106H28.1772V113H7.04429Z" fill="white"/>
<path d="M49.9705 155V148H71.1034V155H49.9705ZM42.9262 148V127H49.9705V148H42.9262ZM71.1034 148V127H78.1476V148H71.1034ZM49.9705 127V120H71.1034V127H49.9705Z" fill="white"/>
<path d="M114.03 155V148H121.074V155H114.03ZM106.985 148V141H114.03V148H106.985ZM106.985 134V127H114.03V134H106.985ZM114.03 127V120H121.074V127H114.03ZM85.8523 155V106H92.8967V134H106.985V141H92.8967V155H85.8523Z" fill="white"/>
<path d="M128.779 148V120H135.823V148H128.779ZM135.823 155V148H156.956V120H164V155H135.823Z" fill="white"/>
<path d="M120.173 0H34.4346V21.4346H13V42.8691H34.4346V85.7383H141.607V42.8691H120.173V0Z" fill="#CA9660"/>
<rect x="55.8691" y="42.8691" width="21.4344" height="21.4344" fill="black"/>
<rect x="98.7383" y="42.8691" width="21.4344" height="21.4344" fill="black"/>
<path d="M120.173 0H34.4346V85.7383H55.8691V21.4346H120.173V0Z" fill="#793D20"/>
<path d="M120.173 0H34.4346V21.4346H13V42.8691H34.4346V85.7383H141.607V42.8691H120.173V0Z" fill="#CA9660"/>
<path d="M120.173 0H34.4346V85.7383H55.8691V21.4346H120.173V0Z" fill="#793D20"/>
<rect x="55.8691" y="42.8691" width="21.4344" height="21.4344" fill="black"/>
<rect x="98.7383" y="42.8691" width="21.4344" height="21.4344" fill="black"/>
</svg>
