<svg width="293" height="146" viewBox="0 0 293 146" fill="none" xmlns="http://www.w3.org/2000/svg">
<path d="M185.173 0.168457H99.4346V21.603H78V43.0376H99.4346V85.9067H206.607V43.0376H185.173V0.168457Z" fill="#CA9660"/>
<rect x="120.869" y="43.0376" width="21.4344" height="21.4344" fill="black"/>
<rect x="163.738" y="43.0376" width="21.4344" height="21.4344" fill="black"/>
<path d="M185.173 0.168457H99.4346V85.9067H120.869V21.603H185.173V0.168457Z" fill="#793D20"/>
<path d="M185.173 0.168457H99.4346V21.603H78V43.0376H99.4346V85.9067H206.607V43.0376H185.173V0.168457Z" fill="#CA9660"/>
<path d="M185.173 0.168457H99.4346V85.9067H120.869V21.603H185.173V0.168457Z" fill="#793D20"/>
<rect x="120.869" y="43.0376" width="21.4344" height="21.4344" fill="black"/>
<rect x="163.738" y="43.0376" width="21.4344" height="21.4344" fill="black"/>
<path d="M5.25979 135.099V130.062H20.3712V135.099H5.25979ZM20.3712 130.062V119.987H10.2969V114.95H25.4083V130.062H20.3712ZM0.222656 130.062V104.876H5.25979V130.062H0.222656ZM20.3712 109.913V104.876H25.4083V109.913H20.3712ZM5.25979 104.876V99.8389H20.3712V104.876H5.25979Z" fill="white"/>
<path d="M35.9548 135.099V130.062H51.0662V135.099H35.9548ZM30.9177 130.062V114.95H35.9548V130.062H30.9177ZM51.0662 130.062V114.95H56.1033V130.062H51.0662ZM35.9548 114.95V109.913H51.0662V114.95H35.9548Z" fill="white"/>
<path d="M81.7612 135.099V130.062H86.7983V135.099H81.7612ZM76.7241 130.062V125.025H81.7612V130.062H76.7241ZM76.7241 119.987V114.95H81.7612V119.987H76.7241ZM81.7612 114.95V109.913H86.7983V114.95H81.7612ZM61.6127 135.099V99.8389H66.6498V119.987H76.7241V125.025H66.6498V135.099H61.6127Z" fill="white"/>
<path d="M92.3077 130.062V109.913H97.3448V130.062H92.3077ZM97.3448 135.099V130.062H112.456V109.913H117.493V135.099H97.3448Z" fill="white"/>
<path d="M164.395 135.099V104.876H169.432V135.099H164.395ZM144.247 135.099V99.8389H164.395V104.876H159.358V135.099H154.321V104.876H149.284V135.099H144.247Z" fill="white"/>
<path d="M179.979 135.099V130.062H195.09V135.099H179.979ZM174.942 130.062V114.95H179.979V130.062H174.942ZM195.09 130.062V114.95H200.127V130.062H195.09ZM179.979 114.95V109.913H195.09V114.95H179.979Z" fill="white"/>
<path d="M225.785 135.099V114.95H230.822V135.099H225.785ZM205.637 135.099V109.913H225.785V114.95H210.674V135.099H205.637Z" fill="white"/>
<path d="M241.369 135.099V130.062H256.48V135.099H241.369ZM236.332 130.062V114.95H241.369V119.987H256.48V114.95H261.517V125.025H241.369V130.062H236.332ZM241.369 114.95V109.913H256.48V114.95H241.369Z" fill="white"/>
<path d="M272.064 145.173V140.136H287.175V145.173H272.064ZM267.027 130.062V109.913H272.064V130.062H267.027ZM287.175 140.136V135.099H272.064V130.062H287.175V109.913H292.212V140.136H287.175Z" fill="white"/>
</svg>
