<svg width="519" height="76" viewBox="0 0 519 76" fill="none" xmlns="http://www.w3.org/2000/svg">
<rect x="92.3506" y="37.2993" width="18.4547" height="18.4547" fill="#CA9660"/>
<rect x="92.3506" y="55.7539" width="18.4547" height="18.4547" fill="#CA9660"/>
<rect x="73.8955" y="55.7539" width="18.4547" height="18.4547" fill="#CA9660"/>
<rect x="55.4404" y="55.7539" width="18.4547" height="18.4547" fill="#CA9660"/>
<rect x="36.9863" y="55.7539" width="18.4547" height="18.4547" fill="#CA9660"/>
<rect x="18.5312" y="55.7539" width="18.4547" height="18.4547" fill="#793D20"/>
<rect x="36.9863" y="37.2993" width="18.4547" height="18.4547" fill="black"/>
<rect x="18.5312" y="37.2993" width="18.4547" height="18.4547" fill="#793D20"/>
<rect x="55.4404" y="37.2993" width="18.4547" height="18.4547" fill="#CA9660"/>
<rect x="73.8955" y="37.2993" width="18.4547" height="18.4547" fill="black"/>
<rect x="73.8955" y="18.8442" width="18.4547" height="18.4547" fill="#CA9660"/>
<rect x="73.8955" y="0.389648" width="18.4547" height="18.4547" fill="#793D20"/>
<rect x="55.4404" y="18.8442" width="18.4547" height="18.4547" fill="#CA9660"/>
<rect x="55.4404" y="0.389648" width="18.4547" height="18.4547" fill="#793D20"/>
<rect x="36.9863" y="18.8442" width="18.4547" height="18.4547" fill="#CA9660"/>
<rect x="36.9863" y="0.389648" width="18.4547" height="18.4547" fill="#793D20"/>
<rect x="18.5312" y="0.389648" width="18.4547" height="18.4547" fill="#793D20"/>
<rect x="18.5312" y="18.8442" width="18.4547" height="18.4547" fill="#793D20"/>
<rect x="0.0761719" y="18.8442" width="18.4547" height="18.4547" fill="#CA9660"/>
<path d="M148.203 62.6738V56.1649H167.73V62.6738H148.203ZM167.73 56.1649V43.147H154.712V36.6381H174.239V56.1649H167.73ZM141.694 56.1649V23.6202H148.203V56.1649H141.694ZM167.73 30.1292V23.6202H174.239V30.1292H167.73ZM148.203 23.6202V17.1113H167.73V23.6202H148.203Z" fill="black"/>
<path d="M187.867 62.6738V56.1649H207.394V62.6738H187.867ZM181.358 56.1649V36.6381H187.867V56.1649H181.358ZM207.394 56.1649V36.6381H213.903V56.1649H207.394ZM187.867 36.6381V30.1292H207.394V36.6381H187.867Z" fill="black"/>
<path d="M247.057 62.6738V56.1649H253.566V62.6738H247.057ZM240.549 56.1649V49.6559H247.057V56.1649H240.549ZM240.549 43.147V36.6381H247.057V43.147H240.549ZM247.057 36.6381V30.1292H253.566V36.6381H247.057ZM221.022 62.6738V17.1113H227.531V43.147H240.549V49.6559H227.531V62.6738H221.022Z" fill="black"/>
<path d="M260.686 56.1649V30.1292H267.194V56.1649H260.686ZM267.194 62.6738V56.1649H286.721V30.1292H293.23V62.6738H267.194Z" fill="black"/>
<path d="M353.836 62.6738V23.6202H360.345V62.6738H353.836ZM327.8 62.6738V17.1113H353.836V23.6202H347.327V62.6738H340.818V23.6202H334.309V62.6738H327.8Z" fill="black"/>
<path d="M373.973 62.6738V56.1649H393.5V62.6738H373.973ZM367.464 56.1649V36.6381H373.973V56.1649H367.464ZM393.5 56.1649V36.6381H400.009V56.1649H393.5ZM373.973 36.6381V30.1292H393.5V36.6381H373.973Z" fill="black"/>
<path d="M433.164 62.6738V36.6381H439.673V62.6738H433.164ZM407.128 62.6738V30.1292H433.164V36.6381H413.637V62.6738H407.128Z" fill="black"/>
<path d="M453.301 62.6738V56.1649H472.827V62.6738H453.301ZM446.792 56.1649V36.6381H453.301V43.147H472.827V36.6381H479.336V49.6559H453.301V56.1649H446.792ZM453.301 36.6381V30.1292H472.827V36.6381H453.301Z" fill="black"/>
<path d="M492.964 75.6916V69.1827H512.491V75.6916H492.964ZM486.455 56.1649V30.1292H492.964V56.1649H486.455ZM512.491 69.1827V62.6738H492.964V56.1649H512.491V30.1292H519V69.1827H512.491Z" fill="black"/>
</svg>
