<svg width="293" height="146" viewBox="0 0 293 146" fill="none" xmlns="http://www.w3.org/2000/svg">
<path d="M185.173 0.164062H99.4346V21.5986H78V43.0332H99.4346V85.9023H206.607V43.0332H185.173V0.164062Z" fill="#CA9660"/>
<rect x="120.869" y="43.0332" width="21.4344" height="21.4344" fill="black"/>
<rect x="163.738" y="43.0332" width="21.4344" height="21.4344" fill="black"/>
<path d="M185.173 0.164062H99.4346V85.9023H120.869V21.5986H185.173V0.164062Z" fill="#793D20"/>
<path d="M185.173 0.164062H99.4346V21.5986H78V43.0332H99.4346V85.9023H206.607V43.0332H185.173V0.164062Z" fill="#CA9660"/>
<path d="M185.173 0.164062H99.4346V85.9023H120.869V21.5986H185.173V0.164062Z" fill="#793D20"/>
<rect x="120.869" y="43.0332" width="21.4344" height="21.4344" fill="black"/>
<rect x="163.738" y="43.0332" width="21.4344" height="21.4344" fill="black"/>
<path d="M5.25979 135.094V130.057H20.3712V135.094H5.25979ZM20.3712 130.057V119.983H10.2969V114.946H25.4083V130.057H20.3712ZM0.222656 130.057V104.872H5.25979V130.057H0.222656ZM20.3712 109.909V104.872H25.4083V109.909H20.3712ZM5.25979 104.872V99.8345H20.3712V104.872H5.25979Z" fill="#171717"/>
<path d="M35.9548 135.094V130.057H51.0662V135.094H35.9548ZM30.9177 130.057V114.946H35.9548V130.057H30.9177ZM51.0662 130.057V114.946H56.1033V130.057H51.0662ZM35.9548 114.946V109.909H51.0662V114.946H35.9548Z" fill="#171717"/>
<path d="M81.7612 135.094V130.057H86.7983V135.094H81.7612ZM76.7241 130.057V125.02H81.7612V130.057H76.7241ZM76.7241 119.983V114.946H81.7612V119.983H76.7241ZM81.7612 114.946V109.909H86.7983V114.946H81.7612ZM61.6127 135.094V99.8345H66.6498V119.983H76.7241V125.02H66.6498V135.094H61.6127Z" fill="#171717"/>
<path d="M92.3077 130.057V109.909H97.3448V130.057H92.3077ZM97.3448 135.094V130.057H112.456V109.909H117.493V135.094H97.3448Z" fill="#171717"/>
<path d="M164.395 135.094V104.872H169.432V135.094H164.395ZM144.247 135.094V99.8345H164.395V104.872H159.358V135.094H154.321V104.872H149.284V135.094H144.247Z" fill="#171717"/>
<path d="M179.979 135.094V130.057H195.09V135.094H179.979ZM174.942 130.057V114.946H179.979V130.057H174.942ZM195.09 130.057V114.946H200.127V130.057H195.09ZM179.979 114.946V109.909H195.09V114.946H179.979Z" fill="#171717"/>
<path d="M225.785 135.094V114.946H230.822V135.094H225.785ZM205.637 135.094V109.909H225.785V114.946H210.674V135.094H205.637Z" fill="#171717"/>
<path d="M241.369 135.094V130.057H256.48V135.094H241.369ZM236.332 130.057V114.946H241.369V119.983H256.48V114.946H261.517V125.02H241.369V130.057H236.332ZM241.369 114.946V109.909H256.48V114.946H241.369Z" fill="#171717"/>
<path d="M272.064 145.169V140.132H287.175V145.169H272.064ZM267.027 130.057V109.909H272.064V130.057H267.027ZM287.175 140.132V135.094H272.064V130.057H287.175V109.909H292.212V140.132H287.175Z" fill="#171717"/>
</svg>
