<svg width="519" height="76" viewBox="0 0 519 76" fill="none" xmlns="http://www.w3.org/2000/svg">
<rect x="92.3506" y="36.9097" width="18.4547" height="18.4547" fill="#CA9660"/>
<rect x="92.3506" y="55.3647" width="18.4547" height="18.4547" fill="#CA9660"/>
<rect x="73.8955" y="55.3647" width="18.4547" height="18.4547" fill="#CA9660"/>
<rect x="55.4404" y="55.3647" width="18.4547" height="18.4547" fill="#CA9660"/>
<rect x="36.9863" y="55.3647" width="18.4547" height="18.4547" fill="#CA9660"/>
<rect x="18.5312" y="55.3647" width="18.4547" height="18.4547" fill="#793D20"/>
<rect x="36.9863" y="36.9097" width="18.4547" height="18.4547" fill="black"/>
<rect x="18.5312" y="36.9097" width="18.4547" height="18.4547" fill="#793D20"/>
<rect x="55.4404" y="36.9097" width="18.4547" height="18.4547" fill="#CA9660"/>
<rect x="73.8955" y="36.9097" width="18.4547" height="18.4547" fill="black"/>
<rect x="73.8955" y="18.4551" width="18.4547" height="18.4547" fill="#CA9660"/>
<rect x="73.8955" width="18.4547" height="18.4547" fill="#793D20"/>
<rect x="55.4404" y="18.4551" width="18.4547" height="18.4547" fill="#CA9660"/>
<rect x="55.4404" width="18.4547" height="18.4547" fill="#793D20"/>
<rect x="36.9863" y="18.4551" width="18.4547" height="18.4547" fill="#CA9660"/>
<rect x="36.9863" width="18.4547" height="18.4547" fill="#793D20"/>
<rect x="18.5312" width="18.4547" height="18.4547" fill="#793D20"/>
<rect x="18.5312" y="18.4551" width="18.4547" height="18.4547" fill="#793D20"/>
<rect x="0.0761719" y="18.4551" width="18.4547" height="18.4547" fill="#CA9660"/>
<path d="M148.203 62.2846V55.7757H167.73V62.2846H148.203ZM167.73 55.7757V42.7579H154.712V36.2489H174.239V55.7757H167.73ZM141.694 55.7757V23.2311H148.203V55.7757H141.694ZM167.73 29.74V23.2311H174.239V29.74H167.73ZM148.203 23.2311V16.7222H167.73V23.2311H148.203Z" fill="white"/>
<path d="M187.867 62.2846V55.7757H207.394V62.2846H187.867ZM181.358 55.7757V36.2489H187.867V55.7757H181.358ZM207.394 55.7757V36.2489H213.903V55.7757H207.394ZM187.867 36.2489V29.74H207.394V36.2489H187.867Z" fill="white"/>
<path d="M247.057 62.2846V55.7757H253.566V62.2846H247.057ZM240.549 55.7757V49.2668H247.057V55.7757H240.549ZM240.549 42.7579V36.2489H247.057V42.7579H240.549ZM247.057 36.2489V29.74H253.566V36.2489H247.057ZM221.022 62.2846V16.7222H227.531V42.7579H240.549V49.2668H227.531V62.2846H221.022Z" fill="white"/>
<path d="M260.686 55.7757V29.74H267.194V55.7757H260.686ZM267.194 62.2846V55.7757H286.721V29.74H293.23V62.2846H267.194Z" fill="white"/>
<path d="M353.836 62.2846V23.2311H360.345V62.2846H353.836ZM327.8 62.2846V16.7222H353.836V23.2311H347.327V62.2846H340.818V23.2311H334.309V62.2846H327.8Z" fill="white"/>
<path d="M373.973 62.2846V55.7757H393.5V62.2846H373.973ZM367.464 55.7757V36.2489H373.973V55.7757H367.464ZM393.5 55.7757V36.2489H400.009V55.7757H393.5ZM373.973 36.2489V29.74H393.5V36.2489H373.973Z" fill="white"/>
<path d="M433.164 62.2846V36.2489H439.673V62.2846H433.164ZM407.128 62.2846V29.74H433.164V36.2489H413.637V62.2846H407.128Z" fill="white"/>
<path d="M453.301 62.2846V55.7757H472.827V62.2846H453.301ZM446.792 55.7757V36.2489H453.301V42.7579H472.827V36.2489H479.336V49.2668H453.301V55.7757H446.792ZM453.301 36.2489V29.74H472.827V36.2489H453.301Z" fill="white"/>
<path d="M492.964 75.3025V68.7935H512.491V75.3025H492.964ZM486.455 55.7757V29.74H492.964V55.7757H486.455ZM512.491 68.7935V62.2846H492.964V55.7757H512.491V29.74H519V68.7935H512.491Z" fill="white"/>
</svg>
