<svg width="617" height="88" viewBox="0 0 617 88" fill="none" xmlns="http://www.w3.org/2000/svg">
<rect x="107.173" y="42.8691" width="21.4344" height="21.4344" fill="#CA9660"/>
<rect x="107.173" y="64.3037" width="21.4344" height="21.4344" fill="#CA9660"/>
<rect x="85.7383" y="64.3037" width="21.4344" height="21.4344" fill="#CA9660"/>
<rect x="64.3037" y="64.3037" width="21.4344" height="21.4344" fill="#CA9660"/>
<rect x="42.8691" y="64.3037" width="21.4344" height="21.4344" fill="#CA9660"/>
<rect x="21.4346" y="64.3037" width="21.4344" height="21.4344" fill="#793D20"/>
<rect x="42.8691" y="42.8691" width="21.4344" height="21.4344" fill="black"/>
<rect x="21.4346" y="42.8691" width="21.4344" height="21.4344" fill="#793D20"/>
<rect x="64.3037" y="42.8691" width="21.4344" height="21.4344" fill="#CA9660"/>
<rect x="85.7383" y="42.8691" width="21.4344" height="21.4344" fill="black"/>
<rect x="85.7383" y="21.4346" width="21.4344" height="21.4344" fill="#CA9660"/>
<rect x="85.7383" width="21.4344" height="21.4344" fill="#793D20"/>
<rect x="64.3037" y="21.4346" width="21.4344" height="21.4344" fill="#CA9660"/>
<rect x="64.3037" width="21.4344" height="21.4344" fill="#793D20"/>
<rect x="42.8691" y="21.4346" width="21.4344" height="21.4344" fill="#CA9660"/>
<rect x="42.8691" width="21.4344" height="21.4344" fill="#793D20"/>
<rect x="21.4346" width="21.4344" height="21.4344" fill="#793D20"/>
<rect x="21.4346" y="21.4346" width="21.4344" height="21.4344" fill="#793D20"/>
<rect y="21.4346" width="21.4344" height="21.4344" fill="#CA9660"/>
<path d="M172.041 72.341V64.7811H194.721V72.341H172.041ZM194.721 64.7811V49.6614H179.601V42.1015H202.281V64.7811H194.721ZM164.481 64.7811V26.9817H172.041V64.7811H164.481ZM194.721 34.5416V26.9817H202.281V34.5416H194.721ZM172.041 26.9817V19.4219H194.721V26.9817H172.041Z" fill="white"/>
<path d="M218.109 72.341V64.7811H240.789V72.341H218.109ZM210.549 64.7811V42.1015H218.109V64.7811H210.549ZM240.789 64.7811V42.1015H248.349V64.7811H240.789ZM218.109 42.1015V34.5416H240.789V42.1015H218.109Z" fill="white"/>
<path d="M286.857 72.341V64.7811H294.417V72.341H286.857ZM279.297 64.7811V57.2212H286.857V64.7811H279.297ZM279.297 49.6614V42.1015H286.857V49.6614H279.297ZM286.857 42.1015V34.5416H294.417V42.1015H286.857ZM256.617 72.341V19.4219H264.177V49.6614H279.297V57.2212H264.177V72.341H256.617Z" fill="white"/>
<path d="M302.685 64.7811V34.5416H310.245V64.7811H302.685ZM310.245 72.341V64.7811H332.925V34.5416H340.485V72.341H310.245Z" fill="white"/>
<path d="M363.873 72.341V64.7811H371.433V72.341H363.873Z" fill="white"/>
<path d="M425.061 72.341V42.1015H432.621V72.341H425.061ZM394.821 72.341V34.5416H425.061V42.1015H417.501V72.341H409.941V42.1015H402.381V72.341H394.821Z" fill="white"/>
<path d="M448.449 72.341V64.7811H471.129V72.341H448.449ZM440.889 64.7811V42.1015H448.449V64.7811H440.889ZM471.129 64.7811V42.1015H478.689V64.7811H471.129ZM448.449 42.1015V34.5416H471.129V42.1015H448.449Z" fill="white"/>
<path d="M517.197 72.341V42.1015H524.757V72.341H517.197ZM486.957 72.341V34.5416H517.197V42.1015H494.517V72.341H486.957Z" fill="white"/>
<path d="M540.585 72.341V64.7811H563.265V72.341H540.585ZM533.025 64.7811V42.1015H540.585V49.6614H563.265V42.1015H570.825V57.2212H540.585V64.7811H533.025ZM540.585 42.1015V34.5416H563.265V42.1015H540.585Z" fill="white"/>
<path d="M586.653 87.4607V79.9008H609.333V87.4607H586.653ZM579.093 64.7811V34.5416H586.653V64.7811H579.093ZM609.333 79.9008V72.341H586.653V64.7811H609.333V34.5416H616.892V79.9008H609.333Z" fill="white"/>
</svg>
