<svg width="333" height="86" viewBox="0 0 333 86" fill="none" xmlns="http://www.w3.org/2000/svg">
<path d="M107.173 0H21.4346V21.4346H0V42.8691H21.4346V85.7383H128.607V42.8691H107.173V0Z" fill="#CA9660"/>
<rect x="42.8691" y="42.8691" width="21.4344" height="21.4344" fill="black"/>
<rect x="85.7383" y="42.8691" width="21.4344" height="21.4344" fill="black"/>
<path d="M107.173 0H21.4346V85.7383H42.8691V21.4346H107.173V0Z" fill="#793D20"/>
<path d="M107.173 0H21.4346V21.4346H0V42.8691H21.4346V85.7383H128.607V42.8691H107.173V0Z" fill="#CA9660"/>
<path d="M107.173 0H21.4346V85.7383H42.8691V21.4346H107.173V0Z" fill="#793D20"/>
<rect x="42.8691" y="42.8691" width="21.4344" height="21.4344" fill="black"/>
<rect x="85.7383" y="42.8691" width="21.4344" height="21.4344" fill="black"/>
<path d="M164.167 71.9191V64.3592H186.847V71.9191H164.167ZM186.847 64.3592V49.2395H171.727V41.6796H194.407V64.3592H186.847ZM156.607 64.3592V26.5599H164.167V64.3592H156.607ZM186.847 34.1197V26.5599H194.407V34.1197H186.847ZM164.167 26.5599V19H186.847V26.5599H164.167Z" fill="black"/>
<path d="M210.235 71.9191V64.3592H232.915V71.9191H210.235ZM202.675 64.3592V41.6796H210.235V64.3592H202.675ZM232.915 64.3592V41.6796H240.475V64.3592H232.915ZM210.235 41.6796V34.1197H232.915V41.6796H210.235Z" fill="black"/>
<path d="M278.983 71.9191V64.3592H286.543V71.9191H278.983ZM271.423 64.3592V56.7994H278.983V64.3592H271.423ZM271.423 49.2395V41.6796H278.983V49.2395H271.423ZM278.983 41.6796V34.1197H286.543V41.6796H278.983ZM248.743 71.9191V19H256.303V49.2395H271.423V56.7994H256.303V71.9191H248.743Z" fill="black"/>
<path d="M294.811 64.3592V34.1197H302.371V64.3592H294.811ZM302.371 71.9191V64.3592H325.051V34.1197H332.611V71.9191H302.371Z" fill="black"/>
</svg>
