<svg width="617" height="88" viewBox="0 0 617 88" fill="none" xmlns="http://www.w3.org/2000/svg">
<rect x="107.173" y="43.4092" width="21.4344" height="21.4344" fill="#CA9660"/>
<rect x="107.173" y="64.8438" width="21.4344" height="21.4344" fill="#CA9660"/>
<rect x="85.7383" y="64.8438" width="21.4344" height="21.4344" fill="#CA9660"/>
<rect x="64.3037" y="64.8438" width="21.4344" height="21.4344" fill="#CA9660"/>
<rect x="42.8691" y="64.8438" width="21.4344" height="21.4344" fill="#CA9660"/>
<rect x="21.4346" y="64.8438" width="21.4344" height="21.4344" fill="#793D20"/>
<rect x="42.8691" y="43.4092" width="21.4344" height="21.4344" fill="black"/>
<rect x="21.4346" y="43.4092" width="21.4344" height="21.4344" fill="#793D20"/>
<rect x="64.3037" y="43.4092" width="21.4344" height="21.4344" fill="#CA9660"/>
<rect x="85.7383" y="43.4092" width="21.4344" height="21.4344" fill="black"/>
<rect x="85.7383" y="21.9746" width="21.4344" height="21.4344" fill="#CA9660"/>
<rect x="85.7383" y="0.539551" width="21.4344" height="21.4344" fill="#793D20"/>
<rect x="64.3037" y="21.9746" width="21.4344" height="21.4344" fill="#CA9660"/>
<rect x="64.3037" y="0.539551" width="21.4344" height="21.4344" fill="#793D20"/>
<rect x="42.8691" y="21.9746" width="21.4344" height="21.4344" fill="#CA9660"/>
<rect x="42.8691" y="0.539551" width="21.4344" height="21.4344" fill="#793D20"/>
<rect x="21.4346" y="0.539551" width="21.4344" height="21.4344" fill="#793D20"/>
<rect x="21.4346" y="21.9746" width="21.4344" height="21.4344" fill="#793D20"/>
<rect y="21.9746" width="21.4344" height="21.4344" fill="#CA9660"/>
<path d="M172.041 72.881V65.3211H194.721V72.881H172.041ZM194.721 65.3211V50.2014H179.601V42.6415H202.281V65.3211H194.721ZM164.481 65.3211V27.5218H172.041V65.3211H164.481ZM194.721 35.0817V27.5218H202.281V35.0817H194.721ZM172.041 27.5218V19.9619H194.721V27.5218H172.041Z" fill="#171717"/>
<path d="M218.109 72.881V65.3211H240.789V72.881H218.109ZM210.549 65.3211V42.6415H218.109V65.3211H210.549ZM240.789 65.3211V42.6415H248.349V65.3211H240.789ZM218.109 42.6415V35.0817H240.789V42.6415H218.109Z" fill="#171717"/>
<path d="M286.857 72.881V65.3211H294.417V72.881H286.857ZM279.297 65.3211V57.7613H286.857V65.3211H279.297ZM279.297 50.2014V42.6415H286.857V50.2014H279.297ZM286.857 42.6415V35.0817H294.417V42.6415H286.857ZM256.617 72.881V19.9619H264.177V50.2014H279.297V57.7613H264.177V72.881H256.617Z" fill="#171717"/>
<path d="M302.685 65.3211V35.0817H310.245V65.3211H302.685ZM310.245 72.881V65.3211H332.925V35.0817H340.485V72.881H310.245Z" fill="#171717"/>
<path d="M363.873 72.881V65.3211H371.433V72.881H363.873Z" fill="#171717"/>
<path d="M425.061 72.881V42.6415H432.621V72.881H425.061ZM394.821 72.881V35.0817H425.061V42.6415H417.501V72.881H409.941V42.6415H402.381V72.881H394.821Z" fill="#171717"/>
<path d="M448.449 72.881V65.3211H471.129V72.881H448.449ZM440.889 65.3211V42.6415H448.449V65.3211H440.889ZM471.129 65.3211V42.6415H478.689V65.3211H471.129ZM448.449 42.6415V35.0817H471.129V42.6415H448.449Z" fill="#171717"/>
<path d="M517.197 72.881V42.6415H524.757V72.881H517.197ZM486.957 72.881V35.0817H517.197V42.6415H494.517V72.881H486.957Z" fill="#171717"/>
<path d="M540.585 72.881V65.3211H563.265V72.881H540.585ZM533.025 65.3211V42.6415H540.585V50.2014H563.265V42.6415H570.825V57.7613H540.585V65.3211H533.025ZM540.585 42.6415V35.0817H563.265V42.6415H540.585Z" fill="#171717"/>
<path d="M586.653 88.0008V80.4409H609.333V88.0008H586.653ZM579.093 65.3211V35.0817H586.653V65.3211H579.093ZM609.333 80.4409V72.881H586.653V65.3211H609.333V35.0817H616.892V80.4409H609.333Z" fill="#171717"/>
</svg>
