<svg width="433" height="180" viewBox="0 0 433 180" fill="none" xmlns="http://www.w3.org/2000/svg">
<path d="M180 90C180 139.706 139.706 180 90 180C40.2944 180 0 139.706 0 90C0 40.2944 40.2944 0 90 0C139.706 0 180 40.2944 180 90Z" fill="url(#paint0_linear_5403_27452)"/>
<path d="M130 88.3354H150V108.336H130V88.3354Z" fill="#CA9660"/>
<path d="M130 108.335H150V128.336H130V108.335Z" fill="#CA9660"/>
<path d="M110 108.335H130V128.336H110V108.335Z" fill="#CA9660"/>
<path d="M90.001 108.335H110.001V128.336H90.001V108.335Z" fill="#CA9660"/>
<path d="M70 108.335H90.0001V128.336H70V108.335Z" fill="#CA9660"/>
<path d="M50 108.335H70.0001V128.336H50V108.335Z" fill="#793D20"/>
<path d="M70 88.3354H90.0001V108.336H70V88.3354Z" fill="black"/>
<path d="M50 88.3354H70.0001V108.336H50V88.3354Z" fill="#793D20"/>
<path d="M90.001 88.3354H110.001V108.336H90.001V88.3354Z" fill="#CA9660"/>
<path d="M110 88.3354H130V108.336H110V88.3354Z" fill="black"/>
<path d="M110 68.3354H130V88.3355H110V68.3354Z" fill="#CA9660"/>
<path d="M110 48.335H130V68.335H110V48.335Z" fill="#793D20"/>
<path d="M90.001 68.3354H110.001V88.3355H90.001V68.3354Z" fill="#CA9660"/>
<path d="M90.001 48.335H110.001V68.335H90.001V48.335Z" fill="#793D20"/>
<path d="M70 68.3354H90.0001V88.3355H70V68.3354Z" fill="#CA9660"/>
<path d="M70 48.335H90.0001V68.335H70V48.335Z" fill="#793D20"/>
<path d="M50 48.335H70.0001V68.335H50V48.335Z" fill="#793D20"/>
<path d="M50 68.3354H70.0001V88.3355H50V68.3354Z" fill="#793D20"/>
<path d="M30 68.3354H50.0001V88.3355H30V68.3354Z" fill="#CA9660"/>
<path d="M260.406 82.5601C260.787 84.0859 260.978 85.9932 260.978 88.282C260.978 90.4753 260.787 92.3826 260.406 94.0038C260.787 95.5296 260.978 97.4369 260.978 99.7257C260.978 101.919 260.787 103.826 260.406 105.448C260.787 106.973 260.978 108.881 260.978 111.169C260.978 113.363 260.787 115.27 260.406 116.891H254.684C255.065 118.417 255.256 120.324 255.256 122.613C255.256 124.806 255.065 126.714 254.684 128.335H226.074C225.693 126.714 225.502 124.806 225.502 122.613C225.502 120.324 225.693 118.417 226.074 116.891H220.353C219.971 115.27 219.78 113.363 219.78 111.169C219.78 108.881 219.971 106.973 220.353 105.448H214.631C214.249 103.826 214.059 101.919 214.059 99.7257C214.059 97.4369 214.249 95.5296 214.631 94.0038C214.249 92.3826 214.059 90.4753 214.059 88.282C214.059 85.9932 214.249 84.0859 214.631 82.5601C214.249 80.9389 214.059 79.0316 214.059 76.8383C214.059 74.5495 214.249 72.6422 214.631 71.1164H220.353C219.971 69.4952 219.78 67.5879 219.78 65.3946C219.78 63.1058 219.971 61.1985 220.353 59.6727H226.074C225.693 58.0515 225.502 56.1442 225.502 53.9509C225.502 51.6621 225.693 49.7548 226.074 48.229H254.684C255.065 49.7548 255.256 51.6621 255.256 53.9509C255.256 56.1442 255.065 58.0515 254.684 59.6727H260.406C260.787 61.1985 260.978 63.1058 260.978 65.3946C260.978 67.5879 260.787 69.4952 260.406 71.1164H248.962C248.58 69.4952 248.39 67.5879 248.39 65.3946C248.39 63.1058 248.58 61.1985 248.962 59.6727H231.796C232.178 61.1985 232.369 63.1058 232.369 65.3946C232.369 67.5879 232.178 69.4952 231.796 71.1164H226.074C226.456 72.6422 226.647 74.5495 226.647 76.8383C226.647 79.0316 226.456 80.9389 226.074 82.5601C226.456 84.0859 226.647 85.9932 226.647 88.282C226.647 90.4753 226.456 92.3826 226.074 94.0038C226.456 95.5296 226.647 97.4369 226.647 99.7257C226.647 101.919 226.456 103.826 226.074 105.448H231.796C232.178 106.973 232.369 108.881 232.369 111.169C232.369 113.363 232.178 115.27 231.796 116.891H248.962C248.58 115.27 248.39 113.363 248.39 111.169C248.39 108.881 248.58 106.973 248.962 105.448C248.58 103.826 248.39 101.919 248.39 99.7257C248.39 97.4369 248.58 95.5296 248.962 94.0038H240.379C239.998 92.3826 239.807 90.4753 239.807 88.282C239.807 85.9932 239.998 84.0859 240.379 82.5601H260.406Z" fill="white"/>
<path d="M317.68 82.5601C318.061 84.0859 318.252 85.9932 318.252 88.282C318.252 90.4753 318.061 92.3826 317.68 94.0038C318.061 95.5296 318.252 97.4369 318.252 99.7257C318.252 101.919 318.061 103.826 317.68 105.448H313.389C313.77 106.973 313.961 108.881 313.961 111.169C313.961 113.363 313.77 115.27 313.389 116.891H306.236C306.618 118.417 306.808 120.324 306.808 122.613C306.808 124.806 306.618 126.714 306.236 128.335H283.349C282.967 126.714 282.777 124.806 282.777 122.613C282.777 120.324 282.967 118.417 283.349 116.891H276.197C275.815 115.27 275.624 113.363 275.624 111.169C275.624 108.881 275.815 106.973 276.197 105.448H271.905C271.524 103.826 271.333 101.919 271.333 99.7257C271.333 97.4369 271.524 95.5296 271.905 94.0038C271.524 92.3826 271.333 90.4753 271.333 88.282C271.333 85.9932 271.524 84.0859 271.905 82.5601C271.524 80.9389 271.333 79.0316 271.333 76.8383C271.333 74.5495 271.524 72.6422 271.905 71.1164H276.197C275.815 69.4952 275.624 67.5879 275.624 65.3946C275.624 63.1058 275.815 61.1985 276.197 59.6727H283.349C282.967 58.0515 282.777 56.1442 282.777 53.9509C282.777 51.6621 282.967 49.7548 283.349 48.229H306.236C306.618 49.7548 306.808 51.6621 306.808 53.9509C306.808 56.1442 306.618 58.0515 306.236 59.6727H313.389C313.77 61.1985 313.961 63.1058 313.961 65.3946C313.961 67.5879 313.77 69.4952 313.389 71.1164H317.68C318.061 72.6422 318.252 74.5495 318.252 76.8383C318.252 79.0316 318.061 80.9389 317.68 82.5601ZM306.236 105.448C305.855 103.826 305.664 101.919 305.664 99.7257C305.664 97.4369 305.855 95.5296 306.236 94.0038C305.855 92.3826 305.664 90.4753 305.664 88.282C305.664 85.9932 305.855 84.0859 306.236 82.5601C305.855 80.9389 305.664 79.0316 305.664 76.8383C305.664 74.5495 305.855 72.6422 306.236 71.1164H301.945C301.563 69.4952 301.373 67.5879 301.373 65.3946C301.373 63.1058 301.563 61.1985 301.945 59.6727H287.64C288.022 61.1985 288.212 63.1058 288.212 65.3946C288.212 67.5879 288.022 69.4952 287.64 71.1164H283.349C283.73 72.6422 283.921 74.5495 283.921 76.8383C283.921 79.0316 283.73 80.9389 283.349 82.5601C283.73 84.0859 283.921 85.9932 283.921 88.282C283.921 90.4753 283.73 92.3826 283.349 94.0038C283.73 95.5296 283.921 97.4369 283.921 99.7257C283.921 101.919 283.73 103.826 283.349 105.448H287.64C288.022 106.973 288.212 108.881 288.212 111.169C288.212 113.363 288.022 115.27 287.64 116.891H301.945C301.563 115.27 301.373 113.363 301.373 111.169C301.373 108.881 301.563 106.973 301.945 105.448H306.236Z" fill="white"/>
<path d="M374.954 116.891C375.336 118.417 375.527 120.324 375.527 122.613C375.527 124.806 375.336 126.714 374.954 128.335H363.511C363.129 126.714 362.939 124.806 362.939 122.613C362.939 120.324 363.129 118.417 363.511 116.891H359.219C358.838 115.27 358.647 113.363 358.647 111.169C358.647 108.881 358.838 106.973 359.219 105.448H350.637C350.255 103.826 350.064 101.919 350.064 99.7257C350.064 97.4369 350.255 95.5296 350.637 94.0038H340.623C341.005 95.5296 341.195 97.4369 341.195 99.7257C341.195 101.919 341.005 103.826 340.623 105.448C341.005 106.973 341.195 108.881 341.195 111.169C341.195 113.363 341.005 115.27 340.623 116.891C341.005 118.417 341.195 120.324 341.195 122.613C341.195 124.806 341.005 126.714 340.623 128.335H329.18C328.798 126.714 328.607 124.806 328.607 122.613C328.607 120.324 328.798 118.417 329.18 116.891C328.798 115.27 328.607 113.363 328.607 111.169C328.607 108.881 328.798 106.973 329.18 105.448C328.798 103.826 328.607 101.919 328.607 99.7257C328.607 97.4369 328.798 95.5296 329.18 94.0038C328.798 92.3826 328.607 90.4753 328.607 88.282C328.607 85.9932 328.798 84.0859 329.18 82.5601C328.798 80.9389 328.607 79.0316 328.607 76.8383C328.607 74.5495 328.798 72.6422 329.18 71.1164C328.798 69.4952 328.607 67.5879 328.607 65.3946C328.607 63.1058 328.798 61.1985 329.18 59.6727C328.798 58.0515 328.607 56.1442 328.607 53.9509C328.607 51.6621 328.798 49.7548 329.18 48.229H340.623C341.005 49.7548 341.195 51.6621 341.195 53.9509C341.195 56.1442 341.005 58.0515 340.623 59.6727C341.005 61.1985 341.195 63.1058 341.195 65.3946C341.195 67.5879 341.005 69.4952 340.623 71.1164C341.005 72.6422 341.195 74.5495 341.195 76.8383C341.195 79.0316 341.005 80.9389 340.623 82.5601H350.637C350.255 80.9389 350.064 79.0316 350.064 76.8383C350.064 74.5495 350.255 72.6422 350.637 71.1164H359.219C358.838 69.4952 358.647 67.5879 358.647 65.3946C358.647 63.1058 358.838 61.1985 359.219 59.6727H363.511C363.129 58.0515 362.939 56.1442 362.939 53.9509C362.939 51.6621 363.129 49.7548 363.511 48.229H374.954C375.336 49.7548 375.527 51.6621 375.527 53.9509C375.527 56.1442 375.336 58.0515 374.954 59.6727H370.663C371.044 61.1985 371.235 63.1058 371.235 65.3946C371.235 67.5879 371.044 69.4952 370.663 71.1164H362.08C362.462 72.6422 362.652 74.5495 362.652 76.8383C362.652 79.0316 362.462 80.9389 362.08 82.5601H354.928C355.309 84.0859 355.5 85.9932 355.5 88.282C355.5 90.4753 355.309 92.3826 354.928 94.0038H362.08C362.462 95.5296 362.652 97.4369 362.652 99.7257C362.652 101.919 362.462 103.826 362.08 105.448H370.663C371.044 106.973 371.235 108.881 371.235 111.169C371.235 113.363 371.044 115.27 370.663 116.891H374.954Z" fill="white"/>
<path d="M432.229 59.6727C432.61 61.1985 432.801 63.1058 432.801 65.3946C432.801 67.5879 432.61 69.4952 432.229 71.1164C432.61 72.6422 432.801 74.5495 432.801 76.8383C432.801 79.0316 432.61 80.9389 432.229 82.5601C432.61 84.0859 432.801 85.9932 432.801 88.282C432.801 90.4753 432.61 92.3826 432.229 94.0038C432.61 95.5296 432.801 97.4369 432.801 99.7257C432.801 101.919 432.61 103.826 432.229 105.448C432.61 106.973 432.801 108.881 432.801 111.169C432.801 113.363 432.61 115.27 432.229 116.891H426.507C426.888 118.417 427.079 120.324 427.079 122.613C427.079 124.806 426.888 126.714 426.507 128.335H392.176C391.794 126.714 391.604 124.806 391.604 122.613C391.604 120.324 391.794 118.417 392.176 116.891H386.454C386.073 115.27 385.882 113.363 385.882 111.169C385.882 108.881 386.073 106.973 386.454 105.448C386.073 103.826 385.882 101.919 385.882 99.7257C385.882 97.4369 386.073 95.5296 386.454 94.0038C386.073 92.3826 385.882 90.4753 385.882 88.282C385.882 85.9932 386.073 84.0859 386.454 82.5601C386.073 80.9389 385.882 79.0316 385.882 76.8383C385.882 74.5495 386.073 72.6422 386.454 71.1164C386.073 69.4952 385.882 67.5879 385.882 65.3946C385.882 63.1058 386.073 61.1985 386.454 59.6727C386.073 58.0515 385.882 56.1442 385.882 53.9509C385.882 51.6621 386.073 49.7548 386.454 48.229H397.898C398.279 49.7548 398.47 51.6621 398.47 53.9509C398.47 56.1442 398.279 58.0515 397.898 59.6727C398.279 61.1985 398.47 63.1058 398.47 65.3946C398.47 67.5879 398.279 69.4952 397.898 71.1164C398.279 72.6422 398.47 74.5495 398.47 76.8383C398.47 79.0316 398.279 80.9389 397.898 82.5601C398.279 84.0859 398.47 85.9932 398.47 88.282C398.47 90.4753 398.279 92.3826 397.898 94.0038C398.279 95.5296 398.47 97.4369 398.47 99.7257C398.47 101.919 398.279 103.826 397.898 105.448C398.279 106.973 398.47 108.881 398.47 111.169C398.47 113.363 398.279 115.27 397.898 116.891H420.785C420.404 115.27 420.213 113.363 420.213 111.169C420.213 108.881 420.404 106.973 420.785 105.448C420.404 103.826 420.213 101.919 420.213 99.7257C420.213 97.4369 420.404 95.5296 420.785 94.0038C420.404 92.3826 420.213 90.4753 420.213 88.282C420.213 85.9932 420.404 84.0859 420.785 82.5601C420.404 80.9389 420.213 79.0316 420.213 76.8383C420.213 74.5495 420.404 72.6422 420.785 71.1164C420.404 69.4952 420.213 67.5879 420.213 65.3946C420.213 63.1058 420.404 61.1985 420.785 59.6727C420.404 58.0515 420.213 56.1442 420.213 53.9509C420.213 51.6621 420.404 49.7548 420.785 48.229H432.229C432.61 49.7548 432.801 51.6621 432.801 53.9509C432.801 56.1442 432.61 58.0515 432.229 59.6727Z" fill="white"/>
<defs>
<linearGradient id="paint0_linear_5403_27452" x1="90" y1="0" x2="90" y2="180" gradientUnits="userSpaceOnUse">
<stop stop-color="#FFAD00"/>
<stop offset="1" stop-color="#FFEEC9"/>
</linearGradient>
</defs>
</svg>
