<svg width="180" height="180" viewBox="0 0 180 180" fill="none" xmlns="http://www.w3.org/2000/svg">
<path d="M180 90C180 139.706 139.706 180 90 180C40.2944 180 0 139.706 0 90C0 40.2944 40.2944 0 90 0C139.706 0 180 40.2944 180 90Z" fill="url(#paint0_linear_5403_27517)"/>
<path d="M110 108.335H130V128.336H110V108.335Z" fill="white"/>
<path d="M90.001 108.335H110.001V128.336H90.001V108.335Z" fill="white"/>
<path d="M70.0005 108.335H90.0005V128.336H70.0005V108.335Z" fill="white"/>
<path d="M50.0005 108.335H70.0005V128.336H50.0005V108.335Z" fill="white"/>
<path d="M50.0005 88.3354H70.0005V108.336H50.0005V88.3354Z" fill="white"/>
<path d="M110 88.3354H130V108.336H110V88.3354Z" fill="white"/>
<path d="M110 48.335H130V68.335H110V48.335Z" fill="white"/>
<path d="M90.001 48.335H110.001V68.335H90.001V48.335Z" fill="white"/>
<path d="M70.0005 48.335H90.0005V68.335H70.0005V48.335Z" fill="white"/>
<path d="M50.0005 48.335H70.0005V68.335H50.0005V48.335Z" fill="white"/>
<path d="M50.0005 68.3354H70.0005V88.3355H50.0005V68.3354Z" fill="white"/>
<defs>
<linearGradient id="paint0_linear_5403_27517" x1="90" y1="0" x2="90" y2="180" gradientUnits="userSpaceOnUse">
<stop offset="0.536458" stop-color="#3C6FD3"/>
<stop offset="1" stop-color="#8FD0E6"/>
</linearGradient>
</defs>
</svg>
