<svg width="180" height="180" viewBox="0 0 180 180" fill="none" xmlns="http://www.w3.org/2000/svg">
<path d="M180 90C180 139.706 139.706 180 90 180C40.2944 180 0 139.706 0 90C0 40.2944 40.2944 0 90 0C139.706 0 180 40.2944 180 90Z" fill="url(#paint0_linear_5403_27577)"/>
<path d="M130 88.3354H150V108.336H130V88.3354Z" fill="#CA9660"/>
<path d="M130 108.335H150V128.336H130V108.335Z" fill="#CA9660"/>
<path d="M110 108.335H130V128.336H110V108.335Z" fill="#CA9660"/>
<path d="M90.0005 108.335H110.001V128.336H90.0005V108.335Z" fill="#CA9660"/>
<path d="M70.0005 108.335H90.0005V128.336H70.0005V108.335Z" fill="#CA9660"/>
<path d="M50.0005 108.335H70.0005V128.336H50.0005V108.335Z" fill="#793D20"/>
<path d="M70.0005 88.3354H90.0005V108.336H70.0005V88.3354Z" fill="black"/>
<path d="M50.0005 88.3354H70.0005V108.336H50.0005V88.3354Z" fill="#793D20"/>
<path d="M90.0005 88.3354H110.001V108.336H90.0005V88.3354Z" fill="#CA9660"/>
<path d="M110 88.3354H130V108.336H110V88.3354Z" fill="black"/>
<path d="M110 68.3354H130V88.3355H110V68.3354Z" fill="#CA9660"/>
<path d="M110 48.335H130V68.335H110V48.335Z" fill="#793D20"/>
<path d="M90.0005 68.3354H110.001V88.3355H90.0005V68.3354Z" fill="#CA9660"/>
<path d="M90.0005 48.335H110.001V68.335H90.0005V48.335Z" fill="#793D20"/>
<path d="M70.0005 68.3354H90.0005V88.3355H70.0005V68.3354Z" fill="#CA9660"/>
<path d="M70.0005 48.335H90.0005V68.335H70.0005V48.335Z" fill="#793D20"/>
<path d="M50.0005 48.335H70.0005V68.335H50.0005V48.335Z" fill="#793D20"/>
<path d="M50.0005 68.3354H70.0005V88.3355H50.0005V68.3354Z" fill="#793D20"/>
<path d="M30 68.3354H50.0001V88.3355H30V68.3354Z" fill="#CA9660"/>
<defs>
<linearGradient id="paint0_linear_5403_27577" x1="90" y1="0" x2="90" y2="180" gradientUnits="userSpaceOnUse">
<stop stop-color="#FFAD00"/>
<stop offset="1" stop-color="#FFEEC9"/>
</linearGradient>
</defs>
</svg>
