<svg width="367" height="180" viewBox="0 0 367 180" fill="none" xmlns="http://www.w3.org/2000/svg">
<path d="M180 90C180 139.706 139.706 180 90 180C40.2944 180 0 139.706 0 90C0 40.2944 40.2944 0 90 0C139.706 0 180 40.2944 180 90Z" fill="url(#paint0_linear_5403_27492)"/>
<path d="M130 50V70L70 70.0005V110H110V90.0005H130V130H50V50H130Z" fill="white"/>
<path d="M260.043 82.5611C260.424 84.0869 260.615 85.9942 260.615 88.2829C260.615 90.4763 260.424 92.3836 260.043 94.0048C260.424 95.5306 260.615 97.4379 260.615 99.7267C260.615 101.92 260.424 103.827 260.043 105.449C260.424 106.974 260.615 108.882 260.615 111.17C260.615 113.364 260.424 115.271 260.043 116.892H254.321C254.702 118.418 254.893 120.325 254.893 122.614C254.893 124.807 254.702 126.715 254.321 128.336H225.712C225.33 126.715 225.14 124.807 225.14 122.614C225.14 120.325 225.33 118.418 225.712 116.892H219.99C219.608 115.271 219.418 113.364 219.418 111.17C219.418 108.882 219.608 106.974 219.99 105.449H214.268C213.887 103.827 213.696 101.92 213.696 99.7267C213.696 97.4379 213.887 95.5306 214.268 94.0048C213.887 92.3836 213.696 90.4763 213.696 88.2829C213.696 85.9942 213.887 84.0869 214.268 82.5611C213.887 80.9399 213.696 79.0326 213.696 76.8392C213.696 74.5505 213.887 72.6432 214.268 71.1174H219.99C219.608 69.4962 219.418 67.5889 219.418 65.3955C219.418 63.1068 219.608 61.1995 219.99 59.6737H225.712C225.33 58.0525 225.14 56.1452 225.14 53.9518C225.14 51.6631 225.33 49.7558 225.712 48.23H254.321C254.702 49.7558 254.893 51.6631 254.893 53.9518C254.893 56.1452 254.702 58.0525 254.321 59.6737H260.043C260.424 61.1995 260.615 63.1068 260.615 65.3955C260.615 67.5889 260.424 69.4962 260.043 71.1174H248.599C248.218 69.4962 248.027 67.5889 248.027 65.3955C248.027 63.1068 248.218 61.1995 248.599 59.6737H231.434C231.815 61.1995 232.006 63.1068 232.006 65.3955C232.006 67.5889 231.815 69.4962 231.434 71.1174H225.712C226.093 72.6432 226.284 74.5505 226.284 76.8392C226.284 79.0326 226.093 80.9399 225.712 82.5611C226.093 84.0869 226.284 85.9942 226.284 88.2829C226.284 90.4763 226.093 92.3836 225.712 94.0048C226.093 95.5306 226.284 97.4379 226.284 99.7267C226.284 101.92 226.093 103.827 225.712 105.449H231.434C231.815 106.974 232.006 108.882 232.006 111.17C232.006 113.364 231.815 115.271 231.434 116.892H248.599C248.218 115.271 248.027 113.364 248.027 111.17C248.027 108.882 248.218 106.974 248.599 105.449C248.218 103.827 248.027 101.92 248.027 99.7267C248.027 97.4379 248.218 95.5306 248.599 94.0048H240.016C239.635 92.3836 239.444 90.4763 239.444 88.2829C239.444 85.9942 239.635 84.0869 240.016 82.5611H260.043Z" fill="url(#paint1_linear_5403_27492)"/>
<path d="M317.889 111.17C317.889 113.364 317.699 115.271 317.317 116.892C317.699 118.418 317.889 120.325 317.889 122.614C317.889 124.807 317.699 126.715 317.317 128.336H305.874C305.492 126.715 305.301 124.807 305.301 122.614C305.301 120.325 305.492 118.418 305.874 116.892C305.492 115.271 305.301 113.364 305.301 111.17C305.301 108.882 305.492 106.974 305.874 105.449H282.986C283.368 106.974 283.558 108.882 283.558 111.17C283.558 113.364 283.368 115.271 282.986 116.892C283.368 118.418 283.558 120.325 283.558 122.614C283.558 124.807 283.368 126.715 282.986 128.336H271.542C271.161 126.715 270.97 124.807 270.97 122.614C270.97 120.325 271.161 118.418 271.542 116.892C271.161 115.271 270.97 113.364 270.97 111.17C270.97 108.882 271.161 106.974 271.542 105.449H275.834C275.452 103.827 275.262 101.92 275.262 99.7267C275.262 97.4379 275.452 95.5306 275.834 94.0048C275.452 92.3836 275.262 90.4763 275.262 88.2829C275.262 85.9942 275.452 84.0869 275.834 82.5611H278.695C278.313 80.9399 278.123 79.0326 278.123 76.8392C278.123 74.5505 278.313 72.6432 278.695 71.1174H282.986C282.605 69.4962 282.414 67.5889 282.414 65.3955C282.414 63.1068 282.605 61.1995 282.986 59.6737H285.847C285.466 58.0525 285.275 56.1452 285.275 53.9518C285.275 51.6631 285.466 49.7558 285.847 48.23H303.013C303.394 49.7558 303.585 51.6631 303.585 53.9518C303.585 56.1452 303.394 58.0525 303.013 59.6737H305.874C306.255 61.1995 306.446 63.1068 306.446 65.3955C306.446 67.5889 306.255 69.4962 305.874 71.1174H310.165C310.546 72.6432 310.737 74.5505 310.737 76.8392C310.737 79.0326 310.546 80.9399 310.165 82.5611H313.026C313.407 84.0869 313.598 85.9942 313.598 88.2829C313.598 90.4763 313.407 92.3836 313.026 94.0048C313.407 95.5306 313.598 97.4379 313.598 99.7267C313.598 101.92 313.407 103.827 313.026 105.449H317.317C317.699 106.974 317.889 108.882 317.889 111.17ZM301.582 94.0048C301.201 92.3836 301.01 90.4763 301.01 88.2829C301.01 85.9942 301.201 84.0869 301.582 82.5611H298.721C298.34 80.9399 298.149 79.0326 298.149 76.8392C298.149 74.5505 298.34 72.6432 298.721 71.1174H290.138C290.52 72.6432 290.711 74.5505 290.711 76.8392C290.711 79.0326 290.52 80.9399 290.138 82.5611H287.277C287.659 84.0869 287.85 85.9942 287.85 88.2829C287.85 90.4763 287.659 92.3836 287.277 94.0048H301.582Z" fill="url(#paint2_linear_5403_27492)"/>
<path d="M366.009 116.892C366.39 118.418 366.581 120.325 366.581 122.614C366.581 124.807 366.39 126.715 366.009 128.336H337.4C337.018 126.715 336.827 124.807 336.827 122.614C336.827 120.325 337.018 118.418 337.4 116.892H345.982C345.601 115.271 345.41 113.364 345.41 111.17C345.41 108.882 345.601 106.974 345.982 105.449C345.601 103.827 345.41 101.92 345.41 99.7267C345.41 97.4379 345.601 95.5306 345.982 94.0048C345.601 92.3836 345.41 90.4763 345.41 88.2829C345.41 85.9942 345.601 84.0869 345.982 82.5611C345.601 80.9399 345.41 79.0326 345.41 76.8392C345.41 74.5505 345.601 72.6432 345.982 71.1174C345.601 69.4962 345.41 67.5889 345.41 65.3955C345.41 63.1068 345.601 61.1995 345.982 59.6737H337.4C337.018 58.0525 336.827 56.1452 336.827 53.9518C336.827 51.6631 337.018 49.7558 337.4 48.23H366.009C366.39 49.7558 366.581 51.6631 366.581 53.9518C366.581 56.1452 366.39 58.0525 366.009 59.6737H357.426C357.808 61.1995 357.998 63.1068 357.998 65.3955C357.998 67.5889 357.808 69.4962 357.426 71.1174C357.808 72.6432 357.998 74.5505 357.998 76.8392C357.998 79.0326 357.808 80.9399 357.426 82.5611C357.808 84.0869 357.998 85.9942 357.998 88.2829C357.998 90.4763 357.808 92.3836 357.426 94.0048C357.808 95.5306 357.998 97.4379 357.998 99.7267C357.998 101.92 357.808 103.827 357.426 105.449C357.808 106.974 357.998 108.882 357.998 111.17C357.998 113.364 357.808 115.271 357.426 116.892H366.009Z" fill="url(#paint3_linear_5403_27492)"/>
<defs>
<linearGradient id="paint0_linear_5403_27492" x1="90" y1="0" x2="90" y2="180" gradientUnits="userSpaceOnUse">
<stop offset="0.536458" stop-color="#3C6FD3"/>
<stop offset="1" stop-color="#8FD0E6"/>
</linearGradient>
<linearGradient id="paint1_linear_5403_27492" x1="290.138" y1="48.23" x2="290.138" y2="128.336" gradientUnits="userSpaceOnUse">
<stop stop-color="#2A65D9"/>
<stop offset="1" stop-color="#58C3E8"/>
</linearGradient>
<linearGradient id="paint2_linear_5403_27492" x1="290.138" y1="48.23" x2="290.138" y2="128.336" gradientUnits="userSpaceOnUse">
<stop stop-color="#2A65D9"/>
<stop offset="1" stop-color="#58C3E8"/>
</linearGradient>
<linearGradient id="paint3_linear_5403_27492" x1="290.138" y1="48.23" x2="290.138" y2="128.336" gradientUnits="userSpaceOnUse">
<stop stop-color="#2A65D9"/>
<stop offset="1" stop-color="#58C3E8"/>
</linearGradient>
</defs>
</svg>
